# xmcd
#
# Track frame offsets:
#	150
#	18172
#	35284
#	49198
#	68445
#	84295
#	104256
#	122955
#	138370
#	153944
#	169789
#	182368
#	200965
#	213990
#
# Disc length: 3436 seconds
#
# Revision: 0
# Processed by: cddbd v1.5.2PL0 Copyright (c) Steve Scherf et al.
# Submitted via: dBpowerAMP V4.0
#
DISCID=b30d6a0e
DTITLE=Mark McGuinn - One Man's Crazy
DYEAR=2006
DGENRE=Country
TTITLE0=One Man's Crazy
TTITLE1=115lbs
TTITLE2=Deep
TTITLE3=Bring 'em Back
TTITLE4=Turtle
TTITLE5=Better A Painful Ending
TTITLE6=Trampoline
TTITLE7=Centerville
TTITLE8=Mona Lisa
TTITLE9=Everest
TTITLE10=Y
TTITLE11=Wide Open
TTITLE12=Big Girl
TTITLE13=More Beautiful Today
EXTD=
EXTT0=
EXTT1=
EXTT2=
EXTT3=
EXTT4=
EXTT5=
EXTT6=
EXTT7=
EXTT8=
EXTT9=
EXTT10=
EXTT11=
EXTT12=
EXTT13=
PLAYORDER=
